<svg width="25" height="25" viewBox="0 0 25 25" fill="none" xmlns="http://www.w3.org/2000/svg">
<g clip-path="url(#clip0_8_63)">
<path d="M24.2891 10.2467C24.4348 11.0857 24.5075 11.9358 24.5062 12.7873C24.5062 16.5905 23.1469 19.8061 20.7812 21.9827H20.7844C18.7156 23.8936 15.8719 24.9998 12.5 24.9998C9.18479 24.9998 6.00537 23.6829 3.66116 21.3387C1.31696 18.9945 0 15.8151 0 12.4998C0 9.18464 1.31696 6.00522 3.66116 3.66101C6.00537 1.31681 9.18479 -0.00015174 12.5 -0.00015174C15.603 -0.0364929 18.5998 1.12927 20.8625 3.25297L17.2937 6.82172C16.0037 5.592 14.282 4.91858 12.5 4.94672C9.23906 4.94672 6.46875 7.14672 5.48125 10.1092C4.95767 11.6616 4.95767 13.3428 5.48125 14.8952H5.48594C6.47812 17.853 9.24375 20.053 12.5047 20.053C14.1891 20.053 15.6359 19.6217 16.7578 18.8592H16.7531C17.4045 18.4277 17.9618 17.8686 18.3912 17.2158C18.8206 16.5629 19.1133 15.8299 19.2516 15.0608H12.5V10.2483L24.2891 10.2467Z" fill="#0CB236"/>
</g>
<defs>
<clipPath id="clip0_8_63">
<rect width="25" height="25" fill="white"/>
</clipPath>
</defs>
</svg>
